<?xml version="1.0" standalone="no"?>
<!DOCTYPE svg PUBLIC "-//W3C//DTD SVG 20010904//EN"
 "http://www.w3.org/TR/2001/REC-SVG-20010904/DTD/svg10.dtd">
<svg version="1.0" xmlns="http://www.w3.org/2000/svg"
 width="500.000000pt" height="500.000000pt" viewBox="0 0 500.000000 500.000000"
 preserveAspectRatio="xMidYMid meet">

<g transform="translate(0.000000,500.000000) scale(0.100000,-0.100000)"
fill="#000000" stroke="none">
<path d="M606 3794 c-9 -8 -16 -19 -16 -23 0 -8 163 -280 575 -961 98 -162
219 -362 268 -445 49 -82 104 -173 122 -201 19 -27 41 -66 50 -86 l17 -35
-188 -314 c-104 -173 -192 -315 -196 -317 -4 -2 -8 -8 -8 -12 0 -5 -18 -38
-40 -72 -44 -70 -51 -112 -20 -128 25 -13 1115 -13 1140 0 15 8 96 137 161
254 9 17 21 32 27 34 5 1 47 -57 92 -130 45 -73 91 -141 102 -150 19 -17 74
-18 843 -18 480 0 834 4 848 9 13 5 27 16 30 25 4 9 -46 101 -125 233 -72 120
-138 230 -147 245 -33 57 -435 724 -590 980 -88 147 -161 273 -161 280 0 7 55
103 121 213 289 476 349 578 349 594 0 41 -2 41 -591 41 -488 0 -570 -2 -582
-15 -9 -8 -52 -75 -97 -150 -45 -74 -85 -135 -89 -135 -3 1 -46 68 -96 150
l-89 150 -848 0 c-756 0 -848 -2 -862 -16z m728 -354 c94 -157 260 -432 369
-612 l197 -327 -85 -138 c-47 -76 -95 -157 -107 -180 -12 -24 -27 -43 -33 -43
-5 0 -43 55 -84 123 -159 261 -541 894 -684 1132 -83 138 -161 265 -173 284
-13 19 -21 38 -18 43 3 5 104 7 225 6 l221 -3 172 -285z m568 -30 c104 -173
207 -343 228 -378 22 -35 40 -68 40 -73 0 -12 -195 -337 -214 -357 -12 -13
-60 60 -325 503 -40 66 -89 147 -109 180 -21 33 -62 101 -91 150 -29 50 -79
133 -111 185 -33 52 -60 98 -60 103 0 4 102 6 227 5 l226 -3 189 -315z m401
253 c24 -38 67 -108 96 -156 61 -101 63 -80 -22 -217 -125 -204 -142 -230
-152 -230 -6 0 -23 21 -39 48 -154 252 -366 607 -366 614 0 4 99 8 220 8 l220
0 43 -67z m877 57 c0 -5 -32 -63 -72 -127 -39 -65 -127 -211 -195 -325 -68
-115 -130 -208 -136 -208 -7 1 -45 58 -86 128 -41 70 -90 151 -108 179 l-35
53 53 87 c29 49 72 118 96 156 l43 67 220 0 c137 0 220 -4 220 -10z m552 -8
c-4 -10 -59 -103 -122 -207 -142 -232 -306 -505 -441 -732 -57 -95 -108 -173
-114 -173 -5 0 -59 81 -118 180 l-108 179 93 156 c51 86 102 171 113 189 11
18 60 100 109 182 48 82 102 170 120 196 l31 47 222 1 c211 0 222 -1 215 -18z
m-1119 -561 c59 -98 107 -185 107 -192 -1 -18 -205 -352 -218 -357 -6 -2 -38
43 -72 100 -34 57 -81 135 -105 173 -24 39 -44 76 -45 84 0 15 211 371 220
371 3 0 53 -81 113 -179z m-277 -458 c59 -98 107 -185 106 -193 -1 -20 -204
-353 -218 -357 -6 -2 -60 78 -119 177 -83 140 -106 185 -99 198 24 49 210 352
216 352 3 0 55 -80 114 -177z m558 -6 c58 -99 106 -182 106 -185 0 -17 -216
-362 -224 -359 -9 3 -56 78 -184 292 -37 61 -40 72 -28 90 7 11 55 90 106 175
82 135 110 175 116 167 1 -1 49 -82 108 -180z m493 110 c23 -40 186 -310 362
-602 313 -519 484 -802 528 -877 l22 -38 -228 0 -227 0 -41 68 c-22 37 -72
119 -111 182 -164 270 -574 953 -578 965 -3 7 24 61 60 120 36 59 66 109 66
112 0 2 14 24 30 48 17 24 30 47 30 51 0 9 31 44 39 44 3 0 25 -33 48 -73z
m-1411 -419 c9 -18 57 -98 106 -177 48 -78 88 -147 88 -153 0 -8 -223 -382
-404 -678 l-52 -85 -228 -3 -229 -2 15 22 c8 13 88 147 179 298 90 151 167
277 171 278 5 2 8 7 8 11 0 4 50 91 111 192 61 101 127 211 147 244 58 100 63
102 88 53z m637 -146 c59 -97 107 -184 107 -192 -1 -8 -21 -46 -45 -85 -24
-38 -71 -116 -105 -173 -34 -57 -66 -102 -72 -100 -11 4 -207 323 -215 350 -5
15 204 378 218 378 3 0 53 -80 112 -178z m519 58 c83 -135 396 -654 514 -852
l92 -153 -216 -3 c-119 -1 -221 -1 -227 2 -9 3 -49 66 -170 268 -5 9 -35 59
-66 110 -167 276 -229 380 -229 383 0 2 18 32 39 66 22 35 61 100 87 144 79
134 95 158 104 149 5 -5 37 -56 72 -114z m-789 -521 c60 -99 107 -183 105
-187 -2 -4 -43 -74 -92 -155 l-88 -147 -224 0 c-123 0 -224 2 -224 3 0 8 36
71 120 207 49 80 131 216 182 302 51 87 98 158 103 158 6 -1 59 -82 118 -181z
m509 69 c37 -62 127 -213 201 -335 l135 -223 -227 0 -228 0 -92 151 -91 151
76 126 c138 229 146 242 153 242 4 0 37 -51 73 -112z"/>
</g>
</svg>
